<?xml version="1.0" encoding="iso-8859-1"?>
<!-- Generator: Adobe Illustrator 19.0.0, SVG Export Plug-In . SVG Version: 6.00 Build 0)  -->
<svg version="1.1" id="Capa_1" xmlns="http://www.w3.org/2000/svg" xmlns:xlink="http://www.w3.org/1999/xlink" x="0px" y="0px"
	 viewBox="0 0 447.216 447.216" style="enable-background:new 0 0 447.216 447.216;" xml:space="preserve">
<path d="M410.122,70.531c-48.588-45.976-127.478-45.976-176.065,0l-10.449,9.927l-9.927-9.404
	c-48.588-45.976-127.478-45.976-176.065,0C13.584,93.518,0,123.298,0,155.69c0,31.869,13.061,62.171,37.094,84.637l175.543,166.661
	c3.135,2.612,6.792,4.18,10.971,4.18c4.18,0,7.837-1.567,10.971-4.18l175.543-166.661c24.033-22.465,37.094-52.767,37.094-84.637
	C447.216,123.298,433.633,93.518,410.122,70.531z"/>
<g>
</g>
<g>
</g>
<g>
</g>
<g>
</g>
<g>
</g>
<g>
</g>
<g>
</g>
<g>
</g>
<g>
</g>
<g>
</g>
<g>
</g>
<g>
</g>
<g>
</g>
<g>
</g>
<g>
</g>
</svg>
